<svg xmlns="http://www.w3.org/2000/svg" width="1440" height="560" preserveAspectRatio="none" xmlns:v="https://vecta.io/nano"><g mask="url(#A)" fill="none" stroke="rgba(41, 39, 51, 1)" stroke-width="2"><path d="M1655.98 99.41c-109.41 1.87-202.13 141.16-414.71 140-212.59-1.16-283.97-308.59-414.72-327.53m685.98 526.76c-105.66-.24-208.4-70-416.81-70-208.4 0-179.6 84.66-416.8 70C441.71 423.98 420.33-31.91 262.11-88.28"/><path d="M1465.26 128.1c-126.35 6.48-218.81 231.21-450.98 229.6S718.54-56.87 563.3-93.21m885.77 546.34c-98.14-.28-193.14-70-386.28-70s-170.65 80.53-386.28 70S432.63 42.42 290.23-2.68"/><path d="M1605.08 389.11c-162.27-.94-294.23-137.55-632.56-145.6-338.32-8.05-453.78-325.79-632.55-336"/></g><defs><mask id="A"><path fill="#fff" d="M0 0h1440v560H0z"/></mask></defs></svg>