<svg xmlns="http://www.w3.org/2000/svg" fill="#000000" viewBox="0 0 32 32" width="200" height="200" xmlns:v="https://vecta.io/nano"><path d="M19 16h2c0 3.023-2 3.723-2 3.723S17.867 22 16 22s-3-2.277-3-2.277-2-.699-2-3.723h2a1 1 0 1 0 2 0h2a1 1 0 1 0 2 0zm9 2a5 5 0 0 1-2.137 4.078c-.418 1.895-1.891 3.367-3.785 3.785A5 5 0 0 1 18 28c-.691 0-1.359-.145-2-.434-.641.289-1.309.434-2 .434a5 5 0 0 1-4.078-2.137c-1.895-.418-3.367-1.891-3.785-3.785A5 5 0 0 1 4 18a5 5 0 0 1 2.109-4.078c-.066-.266-.109-.543-.109-.84 0-1.504.629-2.508 1.027-2.992.066-.531.281-1.43.98-2.137.414-.418 1.148-.91 2.332-.949a3.48 3.48 0 0 1 3.027-2c1.457-1.285 3.809-1.285 5.266 0a3.48 3.48 0 0 1 3.027 2c1.184.039 1.918.531 2.328.949.699.707.918 1.605.98 2.137.402.484 1.031 1.488 1.031 2.992 0 .297-.043.578-.113.844C27.199 14.859 28 16.371 28 18zm-2 0c0-.906-.426-1.738-1.113-2.301-.641.715-1.328 1.133-1.383 1.164l-1.008-1.727C22.91 14.891 24 14.035 24 13.082c0-1.184-.656-1.816-.664-1.824l-.344-.305.008-.457C22.996 10.055 22.844 9 21.5 9c-.098 0-.27.027-.34.043l-1.012.211-.176-1.016C19.844 7.52 19.227 7 18.5 7c-.02.004-.121.016-.125.016l-.527.07-.355-.398a2.01 2.01 0 0 0-2.984 0l-.352.398-.531-.07c-.004 0-.102-.012-.156-.016-.695 0-1.312.52-1.441 1.238l-.176 1.008-1.008-.203C10.824 9.039 10.645 9 10.5 9 9.156 9 9.004 10.055 9 10.508l-.004.445-.332.305c-.016.016-.664.641-.664 1.824 0 .953 1.09 1.809 1.508 2.055l-1.012 1.727c-.055-.031-.75-.453-1.395-1.18A2.99 2.99 0 0 0 6 18c0 1.066.59 2.063 1.539 2.602l.441.246.059.504c.164 1.375 1.238 2.445 2.609 2.609l.504.059.25.441c.793 1.406 2.629 1.973 4.094 1.121l.504-.293.504.293c1.465.855 3.301.285 4.094-1.121l.25-.441.504-.059c1.371-.164 2.445-1.234 2.605-2.609l.063-.504.441-.246C25.41 20.063 26 19.066 26 18z"/></svg>